<svg width="24" height="24" viewBox="0 0 24 24" fill="none" xmlns="http://www.w3.org/2000/svg">
<g clip-path="url(#clip0_686_4775)">
<path d="M2.86164 23.9999L4.08813 22.7734L1.22671 19.912L0.000220922 21.1385L2.86164 23.9999Z" fill="#2195F2"/>
<path d="M3.68013 22.3645L6.13281 19.9119L4.08914 17.8682L1.63646 20.3209L3.68013 22.3645Z" fill="#B7E5FF"/>
<path d="M8.58503 22.3639L9.81152 21.1375L2.86248 14.1884L1.63599 15.4149L8.58503 22.3639Z" fill="#2195F2"/>
<path d="M8.58561 19.9122L18.804 9.69385L14.3073 5.19719L4.08896 15.4155L8.58561 19.9122Z" fill="#B7E5FF"/>
<path d="M24.0004 0.578251L23.4223 0.000244141L17.8188 5.60369H17.1705L15.9441 6.83011L17.1705 8.05652L18.3969 6.83011V6.18174L24.0004 0.578251Z" fill="#4DAAF5"/>
<path d="M22.485 4.78613L21.597 5.67407C21.3804 5.89073 21.2585 6.1851 21.2585 6.4917C21.2585 7.13027 21.7761 7.64781 22.4147 7.64781H22.5549C23.1934 7.64823 23.7114 7.13069 23.7114 6.49212V6.4917C23.7114 6.1851 23.5896 5.89077 23.3729 5.67407L22.485 4.78613Z" fill="#B7E5FF"/>
<path d="M14.8364 10.3891L15.4146 9.81104L12.5531 6.94961L11.975 7.52772L14.8364 10.3891Z" fill="#2195F2"/>
<path d="M11.9744 11.6155L12.5525 11.0374L10.5088 8.99369L9.9307 9.5718L11.9744 11.6155Z" fill="#2195F2"/>
<path d="M10.749 14.4783L11.3271 13.9001L8.46573 11.0387L7.88762 11.6168L10.749 14.4783Z" fill="#2195F2"/>
<path d="M7.88649 15.7036L8.4646 15.1255L6.42093 13.0818L5.84282 13.6599L7.88649 15.7036Z" fill="#2195F2"/>
</g>
<defs>
<clipPath id="clip0_686_4775">
<rect width="24" height="24" fill="white"/>
</clipPath>
</defs>
</svg>
