<svg width="24" height="24" viewBox="0 0 24 24" fill="none" xmlns="http://www.w3.org/2000/svg">
<g clip-path="url(#clip0_686_4678)">
<path d="M22.1438 3.02089L12.1443 0.0210225C12.0506 -0.0070075 11.9509 -0.0070075 11.8573 0.0210225L1.85772 3.02089C1.64594 3.08412 1.50078 3.27888 1.50073 3.49988V14.4994C1.50073 18.9202 8.24241 22.853 11.8523 23.977C11.9499 24.0077 12.0546 24.0077 12.1523 23.977C15.7581 22.853 22.4998 18.9202 22.4998 14.4994V3.49983C22.4998 3.27911 22.3551 3.08445 22.1438 3.02089Z" fill="#2196F3"/>
<path d="M11.0002 15.9992C10.8675 15.9994 10.7402 15.9469 10.6463 15.8532L6.64644 11.8534C6.45464 11.6548 6.46012 11.3382 6.65872 11.1464C6.85249 10.9593 7.15965 10.9593 7.35338 11.1464L11.0002 14.7922L17.6459 8.14653C17.8378 7.94793 18.1543 7.9424 18.3529 8.13425C18.5515 8.3261 18.557 8.64259 18.3652 8.84124C18.3612 8.84541 18.3571 8.84949 18.3529 8.85352L11.3532 15.8532C11.2595 15.9466 11.1326 15.9991 11.0002 15.9992Z" fill="#FAFAFA"/>
</g>
<defs>
<clipPath id="clip0_686_4678">
<rect width="24" height="24" fill="white"/>
</clipPath>
</defs>
</svg>
