<svg width="24" height="24" viewBox="0 0 24 24" fill="none" xmlns="http://www.w3.org/2000/svg">
<g clip-path="url(#clip0_686_4787)">
<path d="M22.2246 7.37842H16.825C16.7126 7.37842 16.6216 7.28723 16.6216 7.17499V1.77539C16.6216 0.794861 15.8267 0 14.8462 0H9.15381C8.17328 0 7.37842 0.794861 7.37842 1.77539V7.17499C7.37842 7.28723 7.28741 7.37842 7.17499 7.37842H1.77539C0.794861 7.37842 0 8.17328 0 9.15381V14.8462C0 15.8267 0.794861 16.6216 1.77539 16.6216H7.17499C7.28741 16.6216 7.37842 16.7128 7.37842 16.825V22.2246C7.37842 23.2051 8.17328 24 9.15381 24H14.8462C15.8267 24 16.6216 23.2051 16.6216 22.2246V16.825C16.6216 16.7128 16.7126 16.6216 16.825 16.6216H22.2244C23.205 16.6216 23.9998 15.8267 23.9998 14.8462V9.15381C24 8.17328 23.2051 7.37842 22.2246 7.37842Z" fill="#8BCAFF"/>
<path d="M1.57196 14.8462V9.15381C1.57196 8.17328 2.367 7.37842 3.34753 7.37842H1.77557C0.794861 7.37842 0 8.17328 0 9.15381V14.8462C0 15.8267 0.794861 16.6216 1.77539 16.6216H3.34753C2.367 16.6216 1.57196 15.8267 1.57196 14.8462Z" fill="#60B8FF"/>
<path d="M8.95062 7.17499V1.77539C8.95062 0.794861 9.74548 0 10.726 0H9.15387C8.17334 0 7.37848 0.794861 7.37848 1.77539V7.17499C7.37848 7.28723 7.28748 7.37842 7.17505 7.37842H8.74719C8.85944 7.37842 8.95062 7.28723 8.95062 7.17499Z" fill="#60B8FF"/>
<path d="M8.95062 22.2246V16.825C8.95062 16.7128 8.85944 16.6216 8.74719 16.6216H7.17505C7.28748 16.6216 7.37848 16.7128 7.37848 16.825V22.2246C7.37848 23.2051 8.17334 24 9.15387 24H10.726C9.74548 24 8.95062 23.2051 8.95062 22.2246Z" fill="#60B8FF"/>
<path d="M22.2247 8.95044H15.2532C15.1407 8.95044 15.0497 8.85944 15.0497 8.74701V1.77545C15.0497 1.66321 14.9587 1.57202 14.8463 1.57202H9.15393C9.04169 1.57202 8.9505 1.66321 8.9505 1.77545V8.74701C8.9505 8.85944 8.8595 8.95044 8.74725 8.95044H1.7757C1.66327 8.95044 1.57227 9.04163 1.57227 9.15387V14.8463C1.57227 14.9585 1.66327 15.0497 1.7757 15.0497H8.74725C8.8595 15.0497 8.9505 15.1407 8.9505 15.2529V22.2245C8.9505 22.3369 9.04169 22.4279 9.15393 22.4279H14.8463C14.9586 22.4279 15.0497 22.3369 15.0497 22.2245V15.2531C15.0497 15.1407 15.1407 15.0497 15.2532 15.0497H22.2247C22.337 15.0497 22.4282 14.9585 22.4282 14.8463V9.15387C22.4282 9.04163 22.337 8.95044 22.2247 8.95044Z" fill="#22A7FF"/>
<path d="M10.399 8.74701V1.77545C10.399 1.66321 10.4901 1.57202 10.6025 1.57202H9.15375C9.0415 1.57202 8.95032 1.66321 8.95032 1.77545V8.74701C8.95032 8.85944 8.85931 8.95044 8.74707 8.95044H10.1956C10.308 8.95044 10.399 8.85944 10.399 8.74701Z" fill="#0094FD"/>
<path d="M3.02075 14.8463V9.15387C3.02075 9.04163 3.11194 8.95044 3.22418 8.95044H1.77563C1.66321 8.95044 1.57202 9.04163 1.57202 9.15387V14.8463C1.57202 14.9587 1.66321 15.0497 1.77563 15.0497H3.22418C3.11194 15.0497 3.02075 14.9585 3.02075 14.8463Z" fill="#0094FD"/>
<path d="M10.399 22.2245V15.253C10.399 15.1406 10.308 15.0496 10.1956 15.0496H8.74707C8.85931 15.0496 8.95032 15.1406 8.95032 15.253V22.2245C8.95032 22.3368 9.0415 22.428 9.15375 22.428H10.6025C10.4901 22.428 10.399 22.3368 10.399 22.2245Z" fill="#0094FD"/>
</g>
<defs>
<clipPath id="clip0_686_4787">
<rect width="24" height="24" fill="white"/>
</clipPath>
</defs>
</svg>
