<svg width="37" height="40" viewBox="0 0 37 40" fill="none" xmlns="http://www.w3.org/2000/svg">
<g clip-path="url(#clip0_324_1695)">
<path d="M18.087 0C10.8095 5.91819 1.15895 5.16971 0.666748 5.22193V17.5457C0.666748 34.2559 18.2101 40 18.2277 40C28.6166 36.0487 35.7886 27.1715 35.7886 17.5457V5.22193C35.3668 5.1349 29.0561 6.07485 18.087 0Z" fill="#281BA4"/>
<path d="M18.1104 3.90247C12.0458 8.66589 4.00367 8.06345 3.59351 8.10548V18.0246C3.59351 31.4743 18.213 36.0976 18.2276 36.0976C26.885 32.9173 32.8617 25.7722 32.8617 18.0246V8.10548C32.5102 8.03543 27.2513 8.79198 18.1104 3.90247Z" fill="#281BA4" stroke="white" stroke-width="1.5" stroke-miterlimit="10"/>
<path d="M14.4651 28.8229C14.3175 28.8229 14.1833 28.7798 14.0491 28.7287L13.8994 28.6738L13.8434 28.5384C11.2826 22.4371 9.04613 19.5758 8.20521 18.5003C7.83842 18.0293 7.73778 17.9037 7.86302 17.6938L7.96814 17.5171L8.21192 17.5093C8.25888 17.5093 8.30585 17.5152 8.35505 17.5289C8.93654 17.6918 13.3267 20.4628 14.5836 21.3616C15.7779 20.4962 21.1792 15.9923 23.3463 14.1594C24.1671 13.4666 27.9803 10.9703 28.857 10.9703C29.0403 10.9703 29.1924 11.0429 29.2752 11.1725L29.49 11.5061L29.0807 11.6415C27.0231 12.3284 17.3032 25.108 15.9524 27.1862C15.8271 27.3786 15.7175 27.5473 15.6236 27.6965C15.0667 28.5619 14.899 28.8229 14.4651 28.8229Z" fill="white"/>
</g>
<defs>
<clipPath id="clip0_324_1695">
<rect width="36" height="40" fill="white" transform="translate(0.666748)"/>
</clipPath>
</defs>
</svg>
