<svg width="43" height="44" viewBox="0 0 43 44" fill="none" xmlns="http://www.w3.org/2000/svg">
<path d="M25.534 7.51827L25.5341 7.5184L36.0091 18.0194C36.3403 18.3505 36.3403 18.8868 36.0091 19.218L33.9062 21.3208C33.5751 21.652 33.0387 21.652 32.7076 21.3208L31.9051 20.5182L16.7212 35.7021C16.7211 35.7023 16.7208 35.7024 16.7208 35.7026C15.9176 36.5186 14.6306 36.5623 13.7549 35.8777L12.2421 37.3904C11.911 37.7216 11.3747 37.7216 11.0435 37.3904L10.2409 36.5879L8.04944 38.7793C7.71827 39.1105 7.18197 39.1105 6.8508 38.7793L6.39871 38.3272L1.75587 42.9701C1.56291 43.1771 1.33312 43.2651 1.10799 43.2559C0.886161 43.2469 0.682141 43.1442 0.532631 42.9947C0.383121 42.8452 0.280432 42.6412 0.271398 42.4193C0.262227 42.1941 0.350311 41.9643 0.557431 41.7713L5.21277 37.1413L4.76097 36.6895C4.4298 36.3583 4.4298 35.822 4.76097 35.4909L6.95242 33.2994L6.14986 32.4969C5.81874 32.1657 5.8187 31.6295 6.14973 31.2984C6.14977 31.2983 6.14982 31.2983 6.14986 31.2982L7.66295 29.7729C6.97803 28.896 7.03524 27.6092 7.83722 26.8071L25.534 7.51827ZM25.534 7.51827C25.3941 7.37842 25.1957 7.27639 24.978 7.26056C24.7559 7.2444 24.5218 7.31886 24.3224 7.51827L22.2325 9.6081C21.9014 9.93927 21.9014 10.4756 22.2325 10.8067L23.0222 11.5964L7.83731 26.807L25.534 7.51827ZM33.4216 1.20984L33.4212 1.21017L31.3317 3.31265C31.3317 3.31272 31.3316 3.3128 31.3315 3.31288C31.0006 3.64406 31.0007 4.1802 31.3317 4.51129L32.1343 5.31384L28.6189 8.82929L28.5128 8.93535L28.6189 9.04142L29.6054 10.0279L29.7114 10.134L29.8175 10.0279L33.32 6.52546L37.0149 10.2204L33.5124 13.7229L33.4064 13.8289L33.5124 13.935L34.4989 14.9215L34.6049 15.0276L34.7111 14.9215L38.2135 11.419L39.0161 12.2216C39.3473 12.5528 39.8836 12.5528 40.2147 12.2216L42.3175 10.1188C42.6487 9.78763 42.6487 9.25131 42.3175 8.92015L34.6203 1.20993V1.2099L34.6178 1.20751C34.2607 0.865938 33.7522 0.87923 33.4216 1.20984ZM9.03594 28.0057L24.2337 12.8079L30.7194 19.2936L15.5217 34.4914C15.2933 34.7198 14.9619 34.7161 14.7498 34.4939V34.4938L14.7473 34.4914L9.03594 28.78C8.80755 28.5517 8.81119 28.2203 9.03345 28.0081H9.03348L9.03594 28.0057ZM19.0935 19.8446C18.8703 19.8446 18.651 19.9394 18.4942 20.0962L10.7969 27.7935C10.4657 28.1247 10.4657 28.661 10.7969 28.9922L14.5222 32.7175C14.8534 33.0487 15.3897 33.0487 15.7209 32.7175L27.1435 21.2948C27.6749 20.7635 27.3069 19.83 26.5427 19.8446H19.0935ZM7.94764 31.8847L8.83901 30.9934L12.5346 34.6889L11.6424 35.5917L7.94764 31.8847ZM6.54671 36.065L8.1503 34.4843L9.04225 35.3763L7.45012 36.9684L6.54671 36.065Z" fill="#281BA4" stroke="#281BA4" stroke-width="0.3"/>
</svg>
